<?xml version="1.0" encoding="UTF-8" standalone="no"?>
<svg
   xmlns:dc="http://purl.org/dc/elements/1.1/"
   xmlns:cc="http://creativecommons.org/ns#"
   xmlns:rdf="http://www.w3.org/1999/02/22-rdf-syntax-ns#"
   xmlns:svg="http://www.w3.org/2000/svg"
   xmlns="http://www.w3.org/2000/svg"
   xmlns:sodipodi="http://sodipodi.sourceforge.net/DTD/sodipodi-0.dtd"
   xmlns:inkscape="http://www.inkscape.org/namespaces/inkscape"
   role="img"
   width="40px"
   height="40px"
   viewBox="0 0 24 24"
   aria-labelledby="shiftIconTitle shiftIconDesc"
   stroke="#000"
   stroke-width="2.4"
   stroke-linecap="round"
   stroke-linejoin="round"
   fill="none"
   color="#000"
   version="1.1"
   id="svg6"
   sodipodi:docname="shift.svg"
   inkscape:version="0.92.3 (2405546, 2018-03-11)">
  <metadata
     id="metadata12">
    <rdf:RDF>
      <cc:Work
         rdf:about="">
        <dc:format>image/svg+xml</dc:format>
        <dc:type
           rdf:resource="http://purl.org/dc/dcmitype/StillImage" />
        <dc:title>Shift</dc:title>
      </cc:Work>
    </rdf:RDF>
  </metadata>
  <defs
     id="defs10" />
  <sodipodi:namedview
     pagecolor="#ffffff"
     bordercolor="#666666"
     borderopacity="1"
     objecttolerance="10"
     gridtolerance="10"
     guidetolerance="10"
     inkscape:pageopacity="0"
     inkscape:pageshadow="2"
     inkscape:window-width="2400"
     inkscape:window-height="1271"
     id="namedview8"
     showgrid="false"
     inkscape:zoom="23.6"
     inkscape:cx="25.201687"
     inkscape:cy="25.795675"
     inkscape:window-x="-9"
     inkscape:window-y="-9"
     inkscape:window-maximized="1"
     inkscape:current-layer="svg6" />
  <title
     id="shiftIconTitle">Shift</title>
  <desc
     id="shiftIconDesc">Icon of a Shift keyboard key</desc>
  <path
     style="color:#000000;font-style:normal;font-variant:normal;font-weight:normal;font-stretch:normal;font-size:medium;line-height:normal;font-family:sans-serif;font-variant-ligatures:normal;font-variant-position:normal;font-variant-caps:normal;font-variant-numeric:normal;font-variant-alternates:normal;font-feature-settings:normal;text-indent:0;text-align:start;text-decoration:none;text-decoration-line:none;text-decoration-style:solid;text-decoration-color:#000000;letter-spacing:normal;word-spacing:normal;text-transform:none;writing-mode:lr-tb;direction:ltr;text-orientation:mixed;dominant-baseline:auto;baseline-shift:baseline;text-anchor:start;white-space:normal;shape-padding:0;clip-rule:nonzero;display:inline;overflow:visible;visibility:visible;opacity:1;isolation:auto;mix-blend-mode:normal;color-interpolation:sRGB;color-interpolation-filters:linearRGB;solid-color:#000000;solid-opacity:1;vector-effect:none;fill:#ffffff;fill-opacity:1;fill-rule:nonzero;stroke:none;stroke-width:2.4000001;stroke-linecap:butt;stroke-linejoin:miter;stroke-miterlimit:4;stroke-dasharray:none;stroke-dashoffset:0;stroke-opacity:1;color-rendering:auto;image-rendering:auto;shape-rendering:auto;text-rendering:auto;enable-background:accumulate"
     d="M 11.982422,1.8007812 A 1.20012,1.20012 0 0 0 11.152344,2.1523438 L 2.1523438,11.152344 A 1.20012,1.20012 0 0 0 3,13.199219 H 6.8007812 V 17 A 1.20012,1.20012 0 0 0 8,18.199219 h 8 A 1.20012,1.20012 0 0 0 17.199219,17 V 13.199219 H 21 a 1.20012,1.20012 0 0 0 0.847656,-2.046875 l -9,-9.0000002 A 1.20012,1.20012 0 0 0 11.982422,1.8007812 Z M 12,4.6953125 18.105469,10.800781 H 16 A 1.20012,1.20012 0 0 0 14.800781,12 v 3.800781 H 9.1992188 V 12 A 1.20012,1.20012 0 0 0 8,10.800781 H 5.8945312 Z M 5,19.800781 a 1.20012,1.20012 0 0 0 -0.2382812,0.02734 1.20012,1.20012 0 0 0 -0.2285157,0.07227 1.20012,1.20012 0 0 0 -0.1054687,0.05469 1.20012,1.20012 0 0 0 -0.1015625,0.06445 1.20012,1.20012 0 0 0 -0.1816407,0.15625 1.20012,1.20012 0 0 0 -0.078125,0.0918 1.20012,1.20012 0 0 0 -0.1738281,0.3125 1.20012,1.20012 0 0 0 -0.0625,0.591797 1.20012,1.20012 0 0 0 0.021484,0.117187 1.20012,1.20012 0 0 0 0.1386719,0.332032 1.20012,1.20012 0 0 0 0.2285156,0.27539 1.20012,1.20012 0 0 0 0.1933594,0.140625 1.20012,1.20012 0 0 0 0.1074218,0.05469 1.20012,1.20012 0 0 0 0.2265626,0.07813 A 1.20012,1.20012 0 0 0 5,22.199219 h 14 a 1.20012,1.20012 0 0 0 0.238281,-0.02734 1.20012,1.20012 0 0 0 0.228516,-0.07227 1.20012,1.20012 0 0 0 0.207031,-0.11914 1.20012,1.20012 0 0 0 0.0957,-0.07422 1.20012,1.20012 0 0 0 0.08594,-0.08203 1.20012,1.20012 0 0 0 0.07813,-0.0918 1.20012,1.20012 0 0 0 0.126953,-0.203125 1.20012,1.20012 0 0 0 0.04687,-0.109375 1.20012,1.20012 0 0 0 0.06055,-0.232422 1.20012,1.20012 0 0 0 0.002,-0.359375 1.20012,1.20012 0 0 0 -0.02148,-0.117187 1.20012,1.20012 0 0 0 -0.03516,-0.115235 1.20012,1.20012 0 0 0 -0.103515,-0.216797 1.20012,1.20012 0 0 0 -0.06641,-0.09961 1.20012,1.20012 0 0 0 -0.07617,-0.0918 1.20012,1.20012 0 0 0 -0.279297,-0.224609 1.20012,1.20012 0 0 0 -0.21875,-0.09961 1.20012,1.20012 0 0 0 -0.115235,-0.0332 1.20012,1.20012 0 0 0 -0.238281,-0.0293 1.20012,1.20012 0 0 0 -0.01563,0 z"
     id="path4"
     inkscape:connector-curvature="0" />
</svg>
