<?xml version="1.0" encoding="UTF-8" standalone="no"?>
<svg
   xmlns:dc="http://purl.org/dc/elements/1.1/"
   xmlns:cc="http://creativecommons.org/ns#"
   xmlns:rdf="http://www.w3.org/1999/02/22-rdf-syntax-ns#"
   xmlns:svg="http://www.w3.org/2000/svg"
   xmlns="http://www.w3.org/2000/svg"
   xmlns:sodipodi="http://sodipodi.sourceforge.net/DTD/sodipodi-0.dtd"
   xmlns:inkscape="http://www.inkscape.org/namespaces/inkscape"
   role="img"
   width="56px"
   height="56px"
   viewBox="0 0 24 24"
   aria-labelledby="deleteIconTitle deleteIconDesc"
   stroke="#000"
   stroke-width="1.7142857142857142"
   stroke-linecap="round"
   stroke-linejoin="round"
   fill="none"
   color="#000"
   version="1.1"
   id="svg8"
   sodipodi:docname="backspace.svg"
   inkscape:version="0.92.3 (2405546, 2018-03-11)">
  <metadata
     id="metadata14">
    <rdf:RDF>
      <cc:Work
         rdf:about="">
        <dc:format>image/svg+xml</dc:format>
        <dc:type
           rdf:resource="http://purl.org/dc/dcmitype/StillImage" />
        <dc:title>Delete (Backspace)</dc:title>
      </cc:Work>
    </rdf:RDF>
  </metadata>
  <defs
     id="defs12" />
  <sodipodi:namedview
     pagecolor="#ffffff"
     bordercolor="#666666"
     borderopacity="1"
     objecttolerance="10"
     gridtolerance="10"
     guidetolerance="10"
     inkscape:pageopacity="0"
     inkscape:pageshadow="2"
     inkscape:window-width="1920"
     inkscape:window-height="1001"
     id="namedview10"
     showgrid="false"
     inkscape:zoom="16.857143"
     inkscape:cx="25.151134"
     inkscape:cy="30.402259"
     inkscape:window-x="-9"
     inkscape:window-y="-9"
     inkscape:window-maximized="1"
     inkscape:current-layer="svg8" />
  <title
     id="deleteIconTitle">Delete (Backspace)</title>
  <desc
     id="deleteIconDesc">Delete content to the left side of the cursor</desc>
  <path
     style="color:#000000;font-style:normal;font-variant:normal;font-weight:normal;font-stretch:normal;font-size:medium;line-height:normal;font-family:sans-serif;font-variant-ligatures:normal;font-variant-position:normal;font-variant-caps:normal;font-variant-numeric:normal;font-variant-alternates:normal;font-feature-settings:normal;text-indent:0;text-align:start;text-decoration:none;text-decoration-line:none;text-decoration-style:solid;text-decoration-color:#000000;letter-spacing:normal;word-spacing:normal;text-transform:none;writing-mode:lr-tb;direction:ltr;text-orientation:mixed;dominant-baseline:auto;baseline-shift:baseline;text-anchor:start;white-space:normal;shape-padding:0;clip-rule:nonzero;display:inline;overflow:visible;visibility:visible;opacity:1;isolation:auto;mix-blend-mode:normal;color-interpolation:sRGB;color-interpolation-filters:linearRGB;solid-color:#000000;solid-opacity:1;vector-effect:none;fill:#ffffff;fill-opacity:1;fill-rule:nonzero;stroke:none;stroke-width:4;stroke-linecap:butt;stroke-linejoin:miter;stroke-miterlimit:4;stroke-dasharray:none;stroke-dashoffset:0;stroke-opacity:1;color-rendering:auto;image-rendering:auto;shape-rendering:auto;text-rendering:auto;enable-background:accumulate"
     d="M 21 12 A 2.0002 2.0002 0 0 0 19.587891 12.587891 L 5.5878906 26.587891 A 2.0002 2.0002 0 0 0 5.5878906 29.412109 L 19.587891 43.412109 A 2.0002 2.0002 0 0 0 21 44 L 46.666016 44 A 2.0002 2.0002 0 0 0 48.667969 42 L 48.667969 14 A 2.0002 2.0002 0 0 0 46.666016 12 L 21 12 z M 21.830078 16 L 44.666016 16 L 44.666016 40 L 21.830078 40 L 9.8261719 28 L 21.830078 16 z M 28.246094 21.578125 A 2.0002 2.0002 0 0 0 26.851562 25.015625 L 29.835938 28 L 26.851562 30.984375 A 2.0011681 2.0011681 0 0 0 29.681641 33.814453 L 32.666016 30.830078 L 35.652344 33.814453 A 2.0011681 2.0011681 0 1 0 38.482422 30.984375 L 35.496094 28 L 38.482422 25.015625 A 2.0011676 2.0011676 0 1 0 35.652344 22.185547 L 32.666016 25.169922 L 29.681641 22.185547 A 2.0002 2.0002 0 0 0 28.246094 21.578125 z "
     transform="scale(0.42857143)"
     id="polygon4" />
</svg>
